<?xml version="1.0" encoding="UTF-8" standalone="no"?>
<!DOCTYPE svg PUBLIC "-//W3C//DTD SVG 1.1//EN" "http://www.w3.org/Graphics/SVG/1.1/DTD/svg11.dtd">
<svg width="100%" height="100%" viewBox="0 0 1024 1024" version="1.1" xmlns="http://www.w3.org/2000/svg" xmlns:xlink="http://www.w3.org/1999/xlink" xml:space="preserve" xmlns:serif="http://www.serif.com/" style="fill-rule:evenodd;clip-rule:evenodd;stroke-linejoin:round;stroke-miterlimit:2;">
    <g id="top" transform="matrix(1.03543,0,0,0.928508,-36.279,73.2074)">
        <path d="M1024,196.867L1024,748.289C1024,900.458 913.215,1024 776.759,1024L282.278,1024C145.822,1024 35.038,900.458 35.038,748.289L35.038,196.867C35.038,44.698 145.822,-78.844 282.278,-78.844L776.759,-78.844C913.215,-78.844 1024,44.698 1024,196.867Z" style="fill:#7c3aed;"/>
    </g>
    <g id="bottom" transform="matrix(1.03543,0,0,0.928508,-36.279,73.2074)">
        <path d="M1024,472.578L1024,748.289C1024,900.458 913.215,1024 776.759,1024L282.278,1024C145.822,1024 35.038,900.458 35.038,748.289L35.038,472.578L1024,472.578Z" style="fill:#6d28d9;"/>
    </g>
    <g id="letter" transform="matrix(1.39187,0,0,1.39187,-198.66,-193.37)">
        <g transform="matrix(0.998762,0,-0.240295,1.02171,292.845,-12.2294)">
            <path d="M323.828,295.726L323.828,720.225C323.828,735.836 310.862,748.511 294.892,748.511L237.022,748.511C221.052,748.511 208.086,735.836 208.086,720.225L208.086,295.726C208.086,280.115 221.052,267.441 237.022,267.441L294.892,267.441C310.862,267.441 323.828,280.115 323.828,295.726Z" style="fill:rgb(39,39,43);"/>
        </g>
        <g transform="matrix(0.998762,0,-0.240295,1.02171,556.782,-12.2294)">
            <path d="M323.828,295.726L323.828,720.225C323.828,735.836 310.862,748.511 294.892,748.511L237.022,748.511C221.052,748.511 208.086,735.836 208.086,720.225L208.086,295.726C208.086,280.115 221.052,267.441 237.022,267.441L294.892,267.441C310.862,267.441 323.828,280.115 323.828,295.726Z" style="fill:rgb(39,39,43);"/>
        </g>
        <g transform="matrix(0.998762,0,0.240295,1.02171,-66.8812,-12.2294)">
            <path d="M323.828,295.726L323.828,720.225C323.828,735.836 310.862,748.511 294.892,748.511L237.022,748.511C221.052,748.511 208.086,735.836 208.086,720.225L208.086,295.726C208.086,280.115 221.052,267.441 237.022,267.441L294.892,267.441C310.862,267.441 323.828,280.115 323.828,295.726Z" style="fill:rgb(39,39,43);"/>
        </g>
        <g transform="matrix(0.998762,0,0.240295,1.02171,191.167,-12.2294)">
            <path d="M323.828,295.726L323.828,720.225C323.828,735.836 310.862,748.511 294.892,748.511L237.022,748.511C221.052,748.511 208.086,735.836 208.086,720.225L208.086,295.726C208.086,280.115 221.052,267.441 237.022,267.441L294.892,267.441C310.862,267.441 323.828,280.115 323.828,295.726Z" style="fill:rgb(39,39,43);"/>
        </g>
    </g>
</svg>
